# xmcd CD database file
#
# Track frame offsets:
#	150
#	15495
#	34077
#	50957
#	70937
#	103747
#	123225
#	144030
#
# Disc length: 2256 seconds
#
# Revision: 0
# Processed by: cddbd v1.5.1PL2 Copyright (c) Steve Scherf et al.
# Submitted via: CDex 1.51
#
DISCID=6808ce08
DTITLE=ブレッド＆バター - BB★C
DYEAR=1998
DGENRE=JPop
TTITLE0=PINK SHADOW
TTITLE1=DOLPHIN
TTITLE2=REMEMBER MY LOVE
TTITLE3=DEVIL WOMAN
TTITLE4=いつから
TTITLE5=地下鉄
TTITLE6=MAGIC
TTITLE7=ENDLESS STREAM
EXTD=YEAR: 1998
EXTT0=
EXTT1=
EXTT2=
EXTT3=
EXTT4=
EXTT5=
EXTT6=
EXTT7=
PLAYORDER=
